# xmcd
#
# Track frame offsets: 
#        150
#        28369
#        51156
#        76056
#        86345
#        101219
#        116110
#        139349
#        155651
#        168849
#        190619
#        209894
#        224422
#        240049
#        268065
#        310218
#        326155
#
# Disc length: 4662 seconds
#
# Revision: 0
# Processed by: cddbd v1.5.2PL0 Copyright (c) Steve Scherf et al.
# Submitted via: ExactAudioCopy v0.99pb5
#
DISCID=f7123411
DTITLE=Van Morrison - The Best of 2000 disc 5
DYEAR=2000
DGENRE=Rhythmic Soul
TTITLE0=Did Ye Get Healed-Yeh Yeh-04-27-Cheltenham-England-Late
TTITLE1=Rough God Goes Riding-04-27-Cheltenham-England-Late
TTITLE2=High Summer-04-27-Cheltenham-England-Late
TTITLE3=Don't Start Crying Now-04-27-Cheltenham-England-Late
TTITLE4=Sack O' Woe-04-27-Cheltenham-England-Early
TTITLE5=Symphony Sid-04-27-Cheltenham-England-Early
TTITLE6=Outskirts Of Town-04-27-Cheltenham-England-Early
TTITLE7=Is You Or Is You Ain't My Baby-04-27-Cheltenham-England-Early
TTITLE8=Gotta See Baby Tonight-04-27-Cheltenham-England-Early
TTITLE9=Who Can I Turn To-04-27-Cheltenham-England-Early
TTITLE10=Dead Or Alive-04-20-Blackpool-England
TTITLE11=Goin' Home-04-20-Blackpool-England
TTITLE12=Tore Down A La Rimbaud-04-20-Blackpool-England
TTITLE13=Fire In The Belly-04-20-Blackpool-England
TTITLE14=It's All In The Game-04-20-Blackpool-England
TTITLE15=Whenever God Shines His Light-07-06-Portsmouth-England
TTITLE16=Stand By Me-07-06-Portsmouth-England
EXTD=
EXTT0=
EXTT1=
EXTT2=
EXTT3=
EXTT4=
EXTT5=
EXTT6=
EXTT7=
EXTT8=
EXTT9=
EXTT10=
EXTT11=
EXTT12=
EXTT13=
EXTT14=
EXTT15=
EXTT16=
PLAYORDER=
